<svg width="90" height="90" viewBox="0 0 130 130" fill="none" xmlns="http://www.w3.org/2000/svg">
<g filter="url(#filter0_d_1_798)">
<circle cx="59" cy="59" r="45" fill="white"/>
</g>
<path d="M70.5986 58.4063H48.3624C46.9068 58.4063 45.8677 57.1186 46.2969 55.8499L49.6417 45.9835C49.9222 45.1569 50.7594 44.5938 51.7072 44.5938H67.2538C68.2015 44.5938 69.0388 45.1569 69.3193 45.9835L72.6641 55.8499C73.0933 57.1186 72.0542 58.4063 70.5986 58.4063Z" fill="#CF91A4"/>
<path d="M58.0355 73.2814C59.3764 73.2814 60.3327 71.9979 59.9459 70.7165L56.8561 60.8501C56.6118 60.0405 55.8404 59.4689 54.967 59.4689H40.6614C39.788 59.4689 39.0145 60.0405 38.7723 60.8501L35.6804 70.7165C35.2936 72 36.2499 73.2814 37.5908 73.2814H58.0355Z" fill="white"/>
<path d="M59.502 72.6439C59.842 73.0264 60.3733 73.2814 60.947 73.2814H81.3897C82.7284 73.2814 83.6847 72.0064 83.3022 70.7102L80.2209 60.8501C79.9659 60.0426 79.2009 59.4689 78.3296 59.4689H64.0071C63.1358 59.4689 62.3708 60.0426 62.1158 60.8501L59.502 69.2439V72.6439Z" fill="white"/>
<path d="M50.5467 55.8499L53.8915 45.9835C54.172 45.1569 55.0092 44.5938 55.957 44.5938H51.707C50.7592 44.5938 49.9219 45.1569 49.6414 45.9835L46.2967 55.8499C45.8653 57.1186 46.9066 58.4063 48.3622 58.4063H52.6122C51.1566 58.4063 50.1174 57.1186 50.5467 55.8499Z" fill="#9E2349"/>
<path d="M39.9304 70.7165L43.0202 60.8501C43.2646 60.0405 44.0359 59.4689 44.9093 59.4689H40.6593C39.7859 59.4689 39.0124 60.0405 38.7702 60.8501L35.6804 70.7165C35.2936 72 36.2499 73.2814 37.5908 73.2814H41.8408C40.4999 73.2814 39.5458 71.9979 39.9304 70.7165Z" fill="white"/>
<path d="M63.7521 69.2439L66.3658 60.8501C66.6208 60.0426 67.3858 59.4689 68.2571 59.4689H64.0071C63.1358 59.4689 62.3708 60.0426 62.1158 60.8501L59.502 69.2439V72.6439C59.842 73.0264 60.3733 73.2814 60.947 73.2814H65.1971C64.6233 73.2814 64.0921 73.0264 63.7521 72.6439V69.2439Z" fill="white"/>
<path d="M70.5984 60.0001H48.3622C47.1191 60.0001 45.9567 59.4178 45.2576 58.4425C44.601 57.5266 44.4288 56.394 44.788 55.3378L48.1327 45.4714C48.6342 43.9945 50.0707 43 51.707 43H61.2696V46.1875H51.707C51.4137 46.1875 51.2034 46.3448 51.1524 46.4956L47.8076 56.3642C47.7949 56.4003 47.7694 56.4768 47.848 56.5852C47.8862 56.6383 48.0371 56.8126 48.3622 56.8126H70.5984C70.9235 56.8126 71.0744 56.6383 71.1126 56.5852C71.1912 56.4747 71.1657 56.3982 71.153 56.3642L67.8082 46.4978C67.7572 46.3469 67.5447 46.1875 67.2536 46.1875H65.3241V43H67.2536C68.892 43 70.3285 43.9945 70.8279 45.4735L74.1726 55.3378C74.5296 56.394 74.3596 57.5266 73.703 58.4425C73.0039 59.4178 71.8415 60.0001 70.5984 60.0001Z" fill="#2F3130"/>
<path d="M58.0356 74.8752H37.5909C36.4412 74.8752 35.3915 74.3482 34.7093 73.4281C34.0272 72.5101 33.8253 71.3541 34.1547 70.2576L37.2487 60.3763C37.6907 58.91 39.0954 57.8751 40.6615 57.8751H54.9671C56.5311 57.8751 57.9357 58.91 58.382 60.3911L61.4654 70.2427C61.8011 71.3541 61.5992 72.5101 60.9192 73.4302C60.2371 74.3482 59.1852 74.8752 58.0356 74.8752ZM40.6615 61.0626C40.4957 61.0626 40.3406 61.1689 40.2981 61.3113L37.2041 71.1904C37.1595 71.3328 37.2147 71.4539 37.2679 71.5262C37.321 71.5985 37.4209 71.6877 37.5909 71.6877H58.0356C58.2056 71.6877 58.3055 71.6006 58.3607 71.5283C58.4138 71.4561 58.467 71.3371 58.4202 71.1777L55.3347 61.3261C55.288 61.1689 55.1307 61.0626 54.9671 61.0626H40.6615Z" fill="#2F3130"/>
<path d="M81.3898 74.8752H60.9472C59.9357 74.8752 58.9751 74.4481 58.3121 73.7043L60.6922 71.5836C60.7283 71.6261 60.8282 71.6877 60.9472 71.6877H81.3898C81.5598 71.6877 81.6597 71.6027 81.7128 71.5305C81.768 71.4561 81.8233 71.3328 81.7723 71.1607L78.6974 61.3261C78.6506 61.1753 78.4934 61.0626 78.3276 61.0626H64.0051C63.8393 61.0626 63.6842 61.1753 63.6353 61.3283L61.0215 69.7157L57.9785 68.7701L60.5923 60.3784C61.0577 58.9015 62.4602 57.8751 64.0072 57.8751H78.3298C79.8768 57.8751 81.2793 58.9015 81.7404 60.3741L84.8238 70.2363C85.1574 71.3647 84.9513 72.5228 84.267 73.4387C83.5849 74.3525 82.5352 74.8752 81.3898 74.8752V74.8752Z" fill="#2F3130"/>
<path d="M54.0877 54.6557L51.0596 53.6548L52.8127 48.3423C53.0295 47.692 53.6393 47.25 54.3278 47.25H62.1373V50.4375H55.4817L54.0877 54.6557Z" fill="#2F3130"/>
<path d="M43.4627 69.5309L40.4346 68.53L42.1877 63.2175C42.4045 62.5672 43.0144 62.1252 43.7029 62.1252H51.5123V65.3128H44.8568L43.4627 69.5309Z" fill="#2F3130"/>
<path d="M66.8372 69.5309L63.809 68.53L65.5622 63.2175C65.7789 62.5672 66.3888 62.1252 67.0773 62.1252H74.8867V65.3128H68.2312L66.8372 69.5309Z" fill="#2F3130"/>
<defs>
<filter id="filter0_d_1_798" x="0" y="0" width="130" height="130" filterUnits="userSpaceOnUse" color-interpolation-filters="sRGB">
<feFlood flood-opacity="0" result="BackgroundImageFix"/>
<feColorMatrix in="SourceAlpha" type="matrix" values="0 0 0 0 0 0 0 0 0 0 0 0 0 0 0 0 0 0 127 0" result="hardAlpha"/>
<feOffset dx="6" dy="6"/>
<feGaussianBlur stdDeviation="10"/>
<feComposite in2="hardAlpha" operator="out"/>
<feColorMatrix type="matrix" values="0 0 0 0 0.490196 0 0 0 0 0.34902 0 0 0 0 0.764706 0 0 0 0.2 0"/>
<feBlend mode="normal" in2="BackgroundImageFix" result="effect1_dropShadow_1_798"/>
<feBlend mode="normal" in="SourceGraphic" in2="effect1_dropShadow_1_798" result="shape"/>
</filter>
</defs>
</svg>
