<svg width="20" height="20" viewBox="0 0 20 20" fill="none" xmlns="http://www.w3.org/2000/svg">
<g clip-path="url(#clip0_330_26)">
<path d="M5.78335 4.16668C5.78313 4.6087 5.60732 5.03254 5.2946 5.34494C4.98188 5.65735 4.55787 5.83273 4.11585 5.83251C3.67382 5.83229 3.24998 5.65648 2.93758 5.34377C2.62517 5.03105 2.44979 4.60704 2.45001 4.16501C2.45023 3.72298 2.62604 3.29915 2.93876 2.98674C3.25147 2.67434 3.67548 2.49896 4.11751 2.49918C4.55954 2.4994 4.98338 2.6752 5.29578 2.98792C5.60818 3.30064 5.78357 3.72465 5.78335 4.16668V4.16668ZM5.83335 7.06668H2.50001V17.5H5.83335V7.06668ZM11.1 7.06668H7.78335V17.5H11.0667V12.025C11.0667 8.97501 15.0417 8.69168 15.0417 12.025V17.5H18.3333V10.8917C18.3333 5.75001 12.45 5.94168 11.0667 8.46668L11.1 7.06668V7.06668Z" fill="#7C5AC7"/>
</g>
<defs>
<clipPath id="clip0_330_26">
<rect width="20" height="20" fill="white"/>
</clipPath>
</defs>
</svg>
