<svg width="20" height="20" viewBox="0 0 20 20" fill="none" xmlns="http://www.w3.org/2000/svg">
<path d="M3.59411 6.08952C3.61351 5.89377 3.53928 5.69888 3.39162 5.56726L1.89826 3.76764V3.49766H6.53694L10.1227 11.361L13.2748 3.49766H17.6966V3.76681L16.4184 4.99102C16.3087 5.07539 16.2556 5.21376 16.2767 5.34959V14.3485C16.2556 14.4852 16.3087 14.6228 16.4184 14.7071L17.6663 15.9313V16.2005H11.3925V15.9313L12.6825 14.6767C12.8107 14.5502 12.8107 14.5122 12.8107 14.319V7.04458L9.21739 16.1709H8.73227L4.54919 7.04458V13.1606C4.5146 13.4179 4.59981 13.6769 4.7812 13.8634L6.46186 15.9026V16.1718H1.69662V15.9026L3.37728 13.8634C3.55614 13.6769 3.63714 13.4162 3.59411 13.1606V6.08952V6.08952Z" fill="#7D59C3"/>
</svg>
