<svg width="20" height="20" viewBox="0 0 20 20" fill="none" xmlns="http://www.w3.org/2000/svg">
<path d="M4.2308 7.88085C4.2308 7.23252 4.34413 6.62002 4.56746 6.04835C4.78084 5.4931 5.09786 4.98349 5.50163 4.54668C5.90458 4.11561 6.36569 3.74285 6.87163 3.43918C7.39073 3.12514 7.95271 2.88822 8.53996 2.73585C9.13431 2.57978 9.7463 2.50108 10.3608 2.50168C11.31 2.50168 12.1933 2.70252 13.0125 3.10252C13.8209 3.49522 14.5091 4.09789 15.005 4.84752C15.5166 5.61002 15.7708 6.47251 15.7708 7.43418C15.7708 8.01085 15.7141 8.57502 15.5983 9.12668C15.4846 9.67804 15.3038 10.2134 15.06 10.7208C14.8276 11.2121 14.5237 11.6662 14.1583 12.0683C13.791 12.4641 13.3463 12.7801 12.8516 12.9967C12.3146 13.232 11.7337 13.3505 11.1475 13.3442C10.74 13.3442 10.3333 13.2483 9.93163 13.0558C9.52996 12.8642 9.24163 12.6008 9.0683 12.2633C9.00746 12.4975 8.92413 12.8358 8.8133 13.2783C8.70663 13.72 8.63496 14.005 8.6033 14.1342C8.56996 14.2625 8.5083 14.4767 8.4183 14.7733C8.35726 14.9928 8.27896 15.2071 8.18413 15.4142L7.89746 15.9758C7.77349 16.2169 7.6349 16.4501 7.48246 16.6742C7.33163 16.8925 7.14496 17.1534 6.92246 17.4534L6.7983 17.4975L6.7158 17.4075C6.62663 16.4633 6.5808 15.8983 6.5808 15.7117C6.5808 15.1592 6.64663 14.5392 6.77663 13.8508C6.90413 13.1633 7.1058 12.2992 7.37663 11.26C7.64746 10.2217 7.80246 9.61085 7.84413 9.43002C7.6533 9.04085 7.55663 8.53252 7.55663 7.90752C7.55663 7.40835 7.71246 6.94085 8.02496 6.50085C8.3383 6.06252 8.73413 5.84335 9.21413 5.84335C9.58163 5.84335 9.86663 5.96502 10.0708 6.20918C10.2758 6.45252 10.3758 6.75918 10.3758 7.13335C10.3758 7.53002 10.2441 8.10418 9.97913 8.85502C9.71413 9.60668 9.58246 10.1675 9.58246 10.54C9.58246 10.9175 9.71746 11.2333 9.98746 11.4808C10.2539 11.7285 10.6063 11.8627 10.97 11.855C11.3 11.855 11.6058 11.78 11.89 11.6292C12.1697 11.4828 12.4118 11.2737 12.5975 11.0183C13.0018 10.4636 13.2901 9.83295 13.445 9.16418C13.525 8.81252 13.5866 8.47835 13.625 8.16418C13.6658 7.84835 13.6833 7.55002 13.6833 7.26668C13.6833 6.22752 13.3533 5.41752 12.6975 4.83752C12.0383 4.25752 11.18 3.96918 10.1241 3.96918C8.9233 3.96918 7.91913 4.35752 7.11496 5.13668C6.30996 5.91335 5.90496 6.90085 5.90496 8.09835C5.90496 8.36252 5.94496 8.61752 6.0208 8.86418C6.09496 9.11002 6.1758 9.30585 6.2633 9.45085C6.34996 9.59335 6.43163 9.73252 6.5058 9.86085C6.5808 9.98918 6.61996 10.0808 6.61996 10.1358C6.61996 10.3042 6.5758 10.5233 6.48663 10.7942C6.39413 11.065 6.28496 11.2 6.1533 11.2C6.1408 11.2 6.08913 11.1908 5.99913 11.1717C5.68743 11.0786 5.40594 10.9047 5.1833 10.6675C4.94699 10.4217 4.76051 10.1325 4.63413 9.81585C4.50811 9.50031 4.40996 9.17434 4.3408 8.84168C4.26607 8.52691 4.22915 8.20436 4.2308 7.88085V7.88085Z" fill="#7D59C3"/>
</svg>
