<svg width="20" height="20" viewBox="0 0 20 20" fill="none" xmlns="http://www.w3.org/2000/svg">
<g clip-path="url(#clip0_330_62)">
<path d="M17.9525 5.41501C18.3333 6.90001 18.3333 10 18.3333 10C18.3333 10 18.3333 13.1 17.9525 14.585C17.7408 15.4058 17.1217 16.0517 16.3375 16.27C14.9133 16.6667 9.99999 16.6667 9.99999 16.6667C9.99999 16.6667 5.08916 16.6667 3.66249 16.27C2.87499 16.0483 2.25666 15.4033 2.04749 14.585C1.66666 13.1 1.66666 10 1.66666 10C1.66666 10 1.66666 6.90001 2.04749 5.41501C2.25916 4.59418 2.87832 3.94834 3.66249 3.73001C5.08916 3.33334 9.99999 3.33334 9.99999 3.33334C9.99999 3.33334 14.9133 3.33334 16.3375 3.73001C17.125 3.95168 17.7433 4.59668 17.9525 5.41501V5.41501ZM8.33332 12.9167L13.3333 10L8.33332 7.08334V12.9167Z" fill="#7D59C3"/>
</g>
<defs>
<clipPath id="clip0_330_62">
<rect width="20" height="20" fill="white"/>
</clipPath>
</defs>
</svg>
